<?xml version="1.0" encoding="UTF-8" standalone="no"?>
<!-- Created with Inkscape (http://www.inkscape.org/) -->
<svg
   xmlns:svg="http://www.w3.org/2000/svg"
   xmlns="http://www.w3.org/2000/svg"
   version="1.0"
   width="478.52609"
   height="250.3026"
   id="svg2161">
  <defs
     id="defs2163" />
  <g
     transform="translate(-79.669004,-297.73952)"
     id="layer1">
    <path
       d="M 553.64509,460.41427 C 542.00545,486.82149 171.35004,521.69625 126.08829,448.46244 C 115.08178,312.28548 236.18365,303.18681 236.18365,303.18681 C 309.93323,291.01996 474.61576,405.66569 553.64509,460.41427 z "
       style="fill:#ffffff;fill-opacity:1;fill-rule:evenodd;stroke:#000000;stroke-width:9.10000038;stroke-linecap:butt;stroke-linejoin:miter;stroke-miterlimit:4;stroke-dasharray:none;stroke-opacity:1"
       id="path2169" />
    <path
       d="M 516 357.36218 A 23 22 0 1 1  470,357.36218 A 23 22 0 1 1  516 357.36218 z"
       transform="matrix(0.9994006,3.461952e-2,-3.461952e-2,0.9994006,-65.923247,-30.280521)"
       style="fill:#ffffff;fill-opacity:1;fill-rule:evenodd;stroke:#000000;stroke-width:9.10000038;stroke-miterlimit:4;stroke-dasharray:none;stroke-opacity:1"
       id="path14603" />
    <path
       d="M 516 357.36218 A 23 22 0 1 1  470,357.36218 A 23 22 0 1 1  516 357.36218 z"
       transform="matrix(0.9994006,3.461952e-2,-3.461952e-2,0.9994006,-39.353667,-15.422226)"
       style="fill:#ffffff;fill-opacity:1;fill-rule:evenodd;stroke:#000000;stroke-width:9.10000038;stroke-miterlimit:4;stroke-dasharray:none;stroke-opacity:1"
       id="path13632" />
    <path
       d="M 428 407.86218 A 2.5 2.5 0 1 1  423,407.86218 A 2.5 2.5 0 1 1  428 407.86218 z"
       transform="matrix(0.9994006,3.461952e-2,-3.461952e-2,0.9994006,34.871886,-3.4486836)"
       style="fill:#a63232;fill-opacity:1;fill-rule:evenodd;stroke:#000000;stroke-width:9.10000038;stroke-miterlimit:4;stroke-dasharray:none;stroke-opacity:1"
       id="path13630" />
    <path
       d="M 128.09698,448.24613 C -19.581017,516.75541 250.81947,542.67982 254.86868,543.69212"
       style="fill:none;fill-rule:evenodd;stroke:#000000;stroke-width:8.70000172;stroke-linecap:butt;stroke-linejoin:miter;stroke-miterlimit:4;stroke-dasharray:none;stroke-opacity:1"
       id="path14605" />
    <path
       d="M 524.37842,457.04357 C 514.96414,475.69094 499.23882,491.24689 481.48524,505.80933"
       style="fill:none;fill-rule:evenodd;stroke:#000000;stroke-width:3.56975245;stroke-linecap:butt;stroke-linejoin:miter;stroke-miterlimit:4;stroke-dasharray:none;stroke-opacity:1"
       id="path9635" />
    <path
       d="M 524.37842,457.04357 C 514.96414,475.69094 499.23882,491.24689 481.48524,505.80933"
       style="fill:none;fill-rule:evenodd;stroke:#000000;stroke-width:3.56975245;stroke-linecap:butt;stroke-linejoin:miter;stroke-miterlimit:4;stroke-dasharray:none;stroke-opacity:1"
       id="path10606" />
    <path
       d="M 524.05992,457.29663 C 504.58581,454.02572 470.56565,450.72829 431.87063,447.42232"
       style="fill:none;fill-rule:evenodd;stroke:#000000;stroke-width:3.38187695;stroke-linecap:butt;stroke-linejoin:miter;stroke-miterlimit:4;stroke-dasharray:none;stroke-opacity:1"
       id="path10608" />
    <path
       d="M 524.51388,456.91069 C 505.6103,463.88621 472.94859,469.29119 435.8652,474.19138"
       style="fill:none;fill-rule:evenodd;stroke:#000000;stroke-width:3.3028698;stroke-linecap:butt;stroke-linejoin:miter;stroke-miterlimit:4;stroke-dasharray:none;stroke-opacity:1"
       id="path10610" />
    <path
       d="M 523.62143,458.71178 C 508.30604,472.53118 482.1351,483.83505 452.47537,494.33045"
       style="fill:none;fill-rule:evenodd;stroke:#000000;stroke-width:4.04575062;stroke-linecap:butt;stroke-linejoin:miter;stroke-miterlimit:4;stroke-dasharray:none;stroke-opacity:1"
       id="path10612" />
    <path
       d="M 422.3125 412.36218 A 1.3125 1.3125 0 1 1  419.6875,412.36218 A 1.3125 1.3125 0 1 1  422.3125 412.36218 z"
       transform="matrix(1.5238095,0,0,1.5238095,-198.71131,-210.87424)"
       style="fill:#ffffff;fill-opacity:1;fill-rule:evenodd;stroke:none;stroke-width:9.30000019;stroke-miterlimit:4;stroke-dasharray:none;stroke-opacity:1"
       id="path19406" />
  </g>
</svg>
