<?xml version="1.0" ?><!-- Created with Inkscape (http://www.inkscape.org/) --><!DOCTYPE svg  PUBLIC '-//W3C//DTD SVG 1.1//EN'  'http://www.w3.org/Graphics/SVG/1.1/DTD/svg11.dtd' [
	<!ENTITY stroke_color "#000000">
	<!ENTITY fill_color "#ffffff">
]><svg height="55" id="svg2161" inkscape:version="0.48.2 r9819" sodipodi:docname="prueba.svg" version="1.0" width="55" xmlns="http://www.w3.org/2000/svg" xmlns:cc="http://creativecommons.org/ns#" xmlns:dc="http://purl.org/dc/elements/1.1/" xmlns:inkscape="http://www.inkscape.org/namespaces/inkscape" xmlns:rdf="http://www.w3.org/1999/02/22-rdf-syntax-ns#" xmlns:sodipodi="http://sodipodi.sourceforge.net/DTD/sodipodi-0.dtd" xmlns:svg="http://www.w3.org/2000/svg">
  <metadata id="metadata18">
    <rdf:RDF>
      <cc:Work rdf:about="">
        <dc:format>image/svg+xml</dc:format>
        <dc:type rdf:resource="http://purl.org/dc/dcmitype/StillImage"/>
        <dc:title/>
      </cc:Work>
    </rdf:RDF>
  </metadata>
  <sodipodi:namedview bordercolor="#666666" borderopacity="1" gridtolerance="10" guidetolerance="10" id="namedview16" inkscape:current-layer="svg2161" inkscape:cx="24.599378" inkscape:cy="20.772012" inkscape:guide-bbox="true" inkscape:pageopacity="0" inkscape:pageshadow="2" inkscape:window-height="744" inkscape:window-maximized="1" inkscape:window-width="1366" inkscape:window-x="0" inkscape:window-y="24" inkscape:zoom="4.8816565" objecttolerance="10" pagecolor="#ffffff" showgrid="false" showguides="true"/>
  <defs id="defs2163"/>
  <path d="M 5.5974128,30.791644 C -11.471532,41.689124 19.781946,45.81281 20.249962,45.973832" id="path14605" inkscape:connector-curvature="0" style="fill:none;fill-opacity:1;stroke:&stroke_color;;stroke-width:1.13599999999999990;stroke-linecap:butt;stroke-linejoin:miter;stroke-miterlimit:4;stroke-opacity:1;stroke-dasharray:none"/>
  <path d="M 54.783191,32.727178 C 53.437856,36.927662 10.596696,42.475042 5.365244,30.826051 4.0930876,9.1649611 18.090306,7.7176743 18.090306,7.7176743 26.614443,5.7823452 45.648809,24.018554 54.783191,32.727178 z" id="path2169" inkscape:connector-curvature="0" style="fill:&fill_color;;fill-opacity:1;fill-rule:evenodd;stroke:&stroke_color;;stroke-width:1.136;stroke-linecap:butt;stroke-linejoin:miter;stroke-miterlimit:4;stroke-opacity:1;stroke-dasharray:none"/>
  <path d="m 41.346839,14.325954 a 3.4996643,2.658225 89.683468 1 1 -5.313593,-0.253312 3.4996643,2.658225 89.683468 0 1 5.313593,0.253312 z" id="path14603" inkscape:connector-curvature="0" style="fill:&fill_color;;fill-opacity:1;fill-rule:evenodd;stroke:&stroke_color;;stroke-width:1.136;stroke-miterlimit:4;stroke-opacity:1;stroke-dasharray:none"/>
  <path d="M 44.417809,16.6894 A 3.4996643,2.658225 89.683468 0 1 39.104216,16.436088 3.4996643,2.658225 89.683468 0 1 44.417809,16.6894 z" id="path13632" inkscape:connector-curvature="0" style="fill:&fill_color;;fill-opacity:1;fill-rule:evenodd;stroke:&stroke_color;;stroke-width:1.136;stroke-miterlimit:4;stroke-opacity:1;stroke-dasharray:none"/>
  <path d="m 42.629755,26.13739 a 0.28895566,0.39766468 0 1 1 -0.577565,-0.02753 0.28895566,0.39766468 0 0 1 0.577565,0.02753 z" id="path13630" inkscape:connector-curvature="0" style="fill:&fill_color;;fill-opacity:1;fill-rule:evenodd;stroke:&stroke_color;;stroke-width:1.136;stroke-miterlimit:4;stroke-opacity:1;stroke-dasharray:none"/>
  <path d="m 51.400486,32.191015 c -1.088123,2.966158 -2.90569,5.440577 -4.957688,7.756962" id="path9635" inkscape:connector-curvature="0" style="fill:&fill_color;;fill-opacity:1;stroke:&stroke_color;;stroke-width:1.136;stroke-linecap:butt;stroke-linejoin:miter;stroke-miterlimit:4;stroke-opacity:1;stroke-dasharray:none"/>
  <path d="m 51.400486,32.191015 c -1.088123,2.966158 -2.90569,5.440577 -4.957688,7.756962" id="path10606" inkscape:connector-curvature="0" style="fill:&fill_color;;fill-opacity:1;stroke:&stroke_color;;stroke-width:1.136;stroke-linecap:butt;stroke-linejoin:miter;stroke-miterlimit:4;stroke-opacity:1;stroke-dasharray:none"/>
  <path d="M 51.363673,32.231268 C 49.112813,31.710979 45.180688,31.18647 40.708233,30.660604" id="path10608" inkscape:connector-curvature="0" style="fill:&fill_color;;fill-opacity:1;stroke:&stroke_color;;stroke-width:1.136;stroke-linecap:butt;stroke-linejoin:miter;stroke-miterlimit:4;stroke-opacity:1;stroke-dasharray:none"/>
  <path d="m 51.416142,32.169879 c -2.184917,1.109566 -5.960028,1.969313 -10.246207,2.748766" id="path10610" inkscape:connector-curvature="0" style="fill:&fill_color;;fill-opacity:1;stroke:&stroke_color;;stroke-width:1.136;stroke-linecap:butt;stroke-linejoin:miter;stroke-miterlimit:4;stroke-opacity:1;stroke-dasharray:none"/>
  <path d="m 51.312991,32.45637 c -1.770186,2.198194 -4.79508,3.996252 -8.223217,5.665711" id="path10612" inkscape:connector-curvature="0" style="fill:&fill_color;;fill-opacity:1;stroke:&stroke_color;;stroke-width:1.136;stroke-linecap:butt;stroke-linejoin:miter;stroke-miterlimit:4;stroke-opacity:1;stroke-dasharray:none"/>
  <path d="m 42.20408,25.898946 a 0.2311645,0.3181317 0 0 1 -0.462329,0 0.2311645,0.3181317 0 1 1 0.462329,0 z" id="path19406" inkscape:connector-curvature="0" style="fill:&fill_color;;fill-opacity:1;fill-rule:evenodd;stroke:&stroke_color;;stroke-width:1.136;stroke-miterlimit:4;stroke-opacity:1;stroke-dasharray:none"/>
</svg>